# Wavefront OBJ file automatically generated by Tiled2Unity

# Vertices (Count = 171)
v -592 -352 0
v -608 -352 0
v -608 -336 0
v -592 -336 0
v -576 -352 0
v -576 -336 0
v -560 -352 0
v -560 -336 0
v -544 -352 0
v -544 -336 0
v -528 -352 0
v -528 -336 0
v -512 -352 0
v -512 -336 0
v -496 -352 0
v -496 -336 0
v -480 -352 0
v -480 -336 0
v -464 -352 0
v -464 -336 0
v -448 -352 0
v -448 -336 0
v -432 -352 0
v -432 -336 0
v -384 -352 0
v -400 -352 0
v -400 -336 0
v -384 -336 0
v -368 -352 0
v -368 -336 0
v -352 -352 0
v -352 -336 0
v -336 -352 0
v -336 -336 0
v -320 -352 0
v -320 -336 0
v -304 -352 0
v -304 -336 0
v -256 -352 0
v -272 -352 0
v -272 -336 0
v -256 -336 0
v -240 -352 0
v -240 -336 0
v -224 -352 0
v -224 -336 0
v -208 -352 0
v -208 -336 0
v -192 -352 0
v -192 -336 0
v -176 -352 0
v -176 -336 0
v -160 -352 0
v -160 -336 0
v -144 -352 0
v -144 -336 0
v -128 -352 0
v -128 -336 0
v -112 -352 0
v -112 -336 0
v -96 -352 0
v -96 -336 0
v -368 -304 0
v -384 -304 0
v -384 -288 0
v -368 -288 0
v -352 -304 0
v -352 -288 0
v -336 -304 0
v -336 -288 0
v -320 -304 0
v -320 -288 0
v -432 -272 0
v -448 -272 0
v -448 -256 0
v -432 -256 0
v -416 -272 0
v -416 -256 0
v -400 -272 0
v -400 -256 0
v -288 -272 0
v -304 -272 0
v -304 -256 0
v -288 -256 0
v -272 -272 0
v -272 -256 0
v -256 -272 0
v -256 -256 0
v -400 -224 0
v -416 -224 0
v -416 -208 0
v -400 -208 0
v -384 -224 0
v -384 -208 0
v -368 -224 0
v -368 -208 0
v -352 -224 0
v -352 -208 0
v -336 -224 0
v -336 -208 0
v -320 -224 0
v -320 -208 0
v -304 -224 0
v -304 -208 0
v -288 -224 0
v -288 -208 0
v -368 -176 0
v -384 -176 0
v -384 -160 0
v -368 -160 0
v -352 -176 0
v -352 -160 0
v -336 -176 0
v -336 -160 0
v -320 -176 0
v -320 -160 0
v -224 -176 0
v -240 -176 0
v -240 -160 0
v -224 -160 0
v -464 -144 0
v -480 -144 0
v -480 -128 0
v -464 -128 0
v -448 -144 0
v -448 -128 0
v -432 -144 0
v -432 -128 0
v -416 -144 0
v -416 -128 0
v -272 -144 0
v -288 -144 0
v -288 -128 0
v -272 -128 0
v -256 -144 0
v -256 -128 0
v -240 -144 0
v -240 -128 0
v -224 -144 0
v -224 -128 0
v -416 -96 0
v -432 -96 0
v -432 -80 0
v -416 -80 0
v -400 -96 0
v -400 -80 0
v -384 -96 0
v -384 -80 0
v -368 -96 0
v -368 -80 0
v -352 -96 0
v -352 -80 0
v -336 -96 0
v -336 -80 0
v -320 -96 0
v -320 -80 0
v -304 -96 0
v -304 -80 0
v -288 -96 0
v -288 -80 0
v -272 -96 0
v -272 -80 0
v -384 -64 0
v -368 -64 0
v -352 -64 0
v -336 -64 0
v -320 -64 0
v -400 -192 0
v -384 -192 0
v -320 -192 0
v -304 -192 0

# Texture cooridinates (Count = 8)
vt 0.0001220703 0.6251221
vt 0.1248779 0.6251221
vt 0.1248779 0.7498779
vt 0.0001220703 0.7498779
vt 0.1251221 0.6251221
vt 0.2498779 0.6251221
vt 0.2498779 0.7498779
vt 0.1251221 0.7498779

# Normal
vn 0 0 -1

# Groups (Count = 2)

g mesh_0001
f 1/1/1 2/2/1 3/3/1 4/4/1
f 5/1/1 1/2/1 4/3/1 6/4/1
f 7/1/1 5/2/1 6/3/1 8/4/1
f 9/1/1 7/2/1 8/3/1 10/4/1
f 11/1/1 9/2/1 10/3/1 12/4/1
f 13/1/1 11/2/1 12/3/1 14/4/1
f 15/1/1 13/2/1 14/3/1 16/4/1
f 17/1/1 15/2/1 16/3/1 18/4/1
f 19/1/1 17/2/1 18/3/1 20/4/1
f 21/1/1 19/2/1 20/3/1 22/4/1
f 23/1/1 21/2/1 22/3/1 24/4/1
f 25/1/1 26/2/1 27/3/1 28/4/1
f 29/1/1 25/2/1 28/3/1 30/4/1
f 31/1/1 29/2/1 30/3/1 32/4/1
f 33/1/1 31/2/1 32/3/1 34/4/1
f 35/1/1 33/2/1 34/3/1 36/4/1
f 37/1/1 35/2/1 36/3/1 38/4/1
f 39/1/1 40/2/1 41/3/1 42/4/1
f 43/1/1 39/2/1 42/3/1 44/4/1
f 45/1/1 43/2/1 44/3/1 46/4/1
f 47/1/1 45/2/1 46/3/1 48/4/1
f 49/1/1 47/2/1 48/3/1 50/4/1
f 51/1/1 49/2/1 50/3/1 52/4/1
f 53/1/1 51/2/1 52/3/1 54/4/1
f 55/1/1 53/2/1 54/3/1 56/4/1
f 57/1/1 55/2/1 56/3/1 58/4/1
f 59/1/1 57/2/1 58/3/1 60/4/1
f 61/1/1 59/2/1 60/3/1 62/4/1
f 63/1/1 64/2/1 65/3/1 66/4/1
f 67/1/1 63/2/1 66/3/1 68/4/1
f 69/1/1 67/2/1 68/3/1 70/4/1
f 71/1/1 69/2/1 70/3/1 72/4/1
f 73/1/1 74/2/1 75/3/1 76/4/1
f 77/1/1 73/2/1 76/3/1 78/4/1
f 79/1/1 77/2/1 78/3/1 80/4/1
f 81/1/1 82/2/1 83/3/1 84/4/1
f 85/1/1 81/2/1 84/3/1 86/4/1
f 87/1/1 85/2/1 86/3/1 88/4/1
f 89/1/1 90/2/1 91/3/1 92/4/1
f 93/1/1 89/2/1 92/3/1 94/4/1
f 95/1/1 93/2/1 94/3/1 96/4/1
f 97/1/1 95/2/1 96/3/1 98/4/1
f 99/1/1 97/2/1 98/3/1 100/4/1
f 101/1/1 99/2/1 100/3/1 102/4/1
f 103/1/1 101/2/1 102/3/1 104/4/1
f 105/1/1 103/2/1 104/3/1 106/4/1
f 107/1/1 108/2/1 109/3/1 110/4/1
f 111/1/1 107/2/1 110/3/1 112/4/1
f 113/1/1 111/2/1 112/3/1 114/4/1
f 115/1/1 113/2/1 114/3/1 116/4/1
f 117/1/1 118/2/1 119/3/1 120/4/1
f 121/1/1 122/2/1 123/3/1 124/4/1
f 125/1/1 121/2/1 124/3/1 126/4/1
f 127/1/1 125/2/1 126/3/1 128/4/1
f 129/1/1 127/2/1 128/3/1 130/4/1
f 131/1/1 132/2/1 133/3/1 134/4/1
f 135/1/1 131/2/1 134/3/1 136/4/1
f 137/1/1 135/2/1 136/3/1 138/4/1
f 139/1/1 137/2/1 138/3/1 140/4/1
f 141/1/1 142/2/1 143/3/1 144/4/1
f 145/1/1 141/2/1 144/3/1 146/4/1
f 147/1/1 145/2/1 146/3/1 148/4/1
f 149/1/1 147/2/1 148/3/1 150/4/1
f 151/1/1 149/2/1 150/3/1 152/4/1
f 153/1/1 151/2/1 152/3/1 154/4/1
f 155/1/1 153/2/1 154/3/1 156/4/1
f 157/1/1 155/2/1 156/3/1 158/4/1
f 159/1/1 157/2/1 158/3/1 160/4/1
f 161/1/1 159/2/1 160/3/1 162/4/1
f 150/5/1 148/6/1 163/7/1 164/8/1
f 152/5/1 150/6/1 164/7/1 165/8/1
f 154/5/1 152/6/1 165/7/1 166/8/1
f 156/5/1 154/6/1 166/7/1 167/8/1

g mesh_0002
f 94/5/1 92/6/1 168/7/1 169/8/1
f 104/5/1 102/6/1 170/7/1 171/8/1

